<svg width="72" height="72" viewBox="0 0 72 72" fill="none" xmlns="http://www.w3.org/2000/svg">
<path fill-rule="evenodd" clip-rule="evenodd" d="M30.0125 31.4907C30.6663 31.4907 31.1953 32.0203 31.1953 32.6735V63.8685C31.1953 64.5217 30.6663 65.0513 30.0125 65.0513H4.87904C4.22587 65.0513 3.69629 64.5217 3.69629 63.8685V32.6735C3.69629 32.0203 4.22587 31.4907 4.87904 31.4907H30.0125ZM6.06179 62.6858H28.8298V33.8562H6.06179V62.6858Z" fill="black"/>
<path d="M18.636 66.0864H16.2653C15.6115 66.0864 15.0825 66.616 15.0825 67.2692C15.0825 67.9223 15.6115 68.4519 16.2653 68.4519H18.636C19.2891 68.4519 19.8187 67.9223 19.8187 67.2692C19.8187 66.616 19.2891 66.0864 18.636 66.0864Z" fill="black"/>
<path fill-rule="evenodd" clip-rule="evenodd" d="M68.3295 -2.11829e-05H52.2988C50.3208 -2.11829e-05 48.6408 1.54541 48.6408 3.5234V9.75768H12.2926C8.60225 9.76865 5.61708 12.7642 5.61823 16.454V27.7946H4.89403C2.16815 27.7946 0.000160656 30.062 0.000160656 32.7907V66.9588C-0.00734704 68.2594 0.506064 69.5092 1.42662 70.4286C2.34661 71.348 3.59635 71.8608 4.89691 71.8521H30.9827C32.05 71.8614 33.0739 71.434 33.8183 70.6694C34.561 69.9036 35.0392 68.9316 34.8913 67.8713V62.0944H62.4671C66.1667 62.0881 69.1692 59.0983 69.1911 55.3981V51.169C69.1738 50.5049 68.6321 49.9747 67.9679 49.9712H66.2342V38.4394H68.3295C70.3075 38.4394 71.8523 36.7606 71.8523 34.7826V3.5234C71.8633 2.58552 71.496 1.68344 70.8324 1.01987C70.1694 0.356883 69.2668 -0.010994 68.3295 -2.11829e-05ZM51.0063 7.68786H69.4868V28.8295H51.0063V7.68786ZM68.3295 2.36548H52.2988C51.6254 2.36548 51.0063 2.85002 51.0063 3.5234V5.32236H69.4868V3.5234C69.4989 3.21327 69.3806 2.91181 69.1611 2.69178C68.9411 2.47232 68.6396 2.35393 68.3295 2.36548ZM7.98373 16.454C7.98085 14.07 9.90801 12.133 12.2926 12.1232H48.6408V15.5236H12.2198C11.5666 15.5236 11.0885 16.1179 11.0885 16.771V27.7946H7.98373V16.454ZM30.9827 69.4866C31.421 69.5005 31.8455 69.333 32.1562 69.0235C32.4415 68.7249 32.5888 68.3212 32.5628 67.9094C32.5628 67.9034 32.5538 67.9014 32.5449 67.8993C32.5359 67.8973 32.527 67.8953 32.527 67.8892V32.7907C32.527 31.3654 31.4274 30.1601 29.9986 30.1601H4.89691C3.47161 30.1601 2.36566 31.3654 2.36566 32.7942V66.9554C2.357 67.6305 2.6215 68.2796 3.09853 68.7567C3.57614 69.2331 4.22584 69.4965 4.90096 69.4866H30.9827ZM30.0021 27.7946H13.454V17.8891H48.6408V34.7826C48.6708 36.7906 50.2914 38.4105 52.2988 38.4394H58.3985V49.9712H43.9964C43.6655 49.9741 43.3502 50.115 43.1267 50.3599L42.0104 51.5536C41.1903 52.4349 40.0393 52.9333 38.8352 52.9281H34.8913V32.7873C34.8913 30.062 32.7308 27.7946 30.0021 27.7946ZM62.4671 59.7289C64.8609 59.7237 66.8048 57.7925 66.8256 55.3981V52.3367H44.515L43.7498 53.1533C42.4816 54.5209 40.7 55.2965 38.8352 55.2936H34.8913V59.7289H62.4671ZM63.8687 49.9712H60.764V38.4394H63.8687V49.9712ZM52.2988 36.0739H68.3295C69.0029 36.0739 69.4868 35.4565 69.4868 34.7826V31.1951H51.0063V34.7826C51.0346 35.4843 51.5977 36.0468 52.2988 36.0739Z" fill="black"/>
<path d="M61.9467 32.23H58.8419C58.1888 32.23 57.6592 32.7596 57.6592 33.4127C57.6592 34.0659 58.1888 34.5955 58.8419 34.5955H61.9467C62.6004 34.5955 63.1294 34.0659 63.1294 33.4127C63.1294 32.7596 62.6004 32.23 61.9467 32.23Z" fill="black"/>
</svg>
