<svg width="72" height="36" viewBox="0 0 72 36" fill="none" xmlns="http://www.w3.org/2000/svg">
<g id="002-forever">
<path id="Path" d="M71.0869 19.1056C70.5088 19.0265 69.9767 19.4313 69.8978 20.0091C69.3881 23.7413 67.5412 27.1745 64.6969 29.6761C61.827 32.2001 58.1394 33.5902 54.3129 33.5902C52.2309 33.5902 50.2087 33.1903 48.3024 32.4014C48.2708 32.3883 48.2342 32.3755 48.2013 32.3655C48.1789 32.3588 45.9294 31.6561 42.5798 28.9971C42.1229 28.6345 41.4588 28.711 41.0961 29.1677C40.7336 29.6246 40.8099 30.2888 41.2667 30.6514C44.703 33.379 47.1172 34.2348 47.5381 34.3708C49.689 35.2542 51.9679 35.7023 54.3129 35.7023C58.653 35.7023 62.8361 34.1253 66.0918 31.262C69.3173 28.4252 71.412 24.5303 71.9904 20.295C72.0692 19.7169 71.6647 19.1845 71.0869 19.1056Z" fill="black"/>
<path id="Shape" fill-rule="evenodd" clip-rule="evenodd" d="M54.3835 29.2091C50.6997 29.2092 47.9123 27.1668 45.671 25.1688C43.2559 23.0157 41.2518 20.9117 40.189 19.7536C39.8392 20.1689 38.8537 21.366 38.0495 22.343C37.6071 22.8804 37.2196 23.3511 37.0228 23.5886C37.6766 24.3461 38.3422 25.0723 39.007 25.753C39.4146 26.1702 39.4067 26.8387 38.9895 27.2463C38.5722 27.6536 37.9037 27.6458 37.4962 27.2287C36.8836 26.6016 36.2713 25.9377 35.6678 25.2481C29.3517 32.9355 25.4364 34.1979 24.5636 34.3921C22.6584 35.1675 20.6446 35.603 18.5768 35.6868C18.5697 35.6873 18.5626 35.6874 18.5555 35.6875H18.5552L17.8638 35.7015L17.8424 35.7016C13.0519 35.7016 8.55483 33.8292 5.17969 30.4293C1.80483 27.0297 -0.0344026 22.5184 0.000472352 17.7262C0.0352067 12.9717 1.93435 8.50544 5.34788 5.15013C8.76352 1.79298 13.2616 -0.0321876 18.0235 0.0175937C20.242 0.0396718 22.4039 0.4645 24.4491 1.28027C24.546 1.31894 24.6435 1.35719 24.7416 1.39389C25.7143 1.75755 30.6581 3.86228 36.2248 10.7919C42.6958 2.81758 46.7079 1.52312 47.5915 1.32625C49.4968 0.550844 51.5104 0.115328 53.5785 0.0315155C53.5856 0.0310937 53.5928 0.030953 53.6 0.0308124L54.2914 0.0168905L54.3128 0.0167499C58.5916 0.0167499 62.7296 1.55448 65.9648 4.34659C69.166 7.10931 71.2876 10.9194 71.9392 15.0753C72.0294 15.6514 71.6356 16.1917 71.0594 16.2821C70.4831 16.372 69.9428 15.9785 69.8526 15.4024C69.2785 11.7401 67.4078 8.38155 64.5849 5.94536C61.7357 3.48639 58.0917 2.13119 54.3231 2.12866L53.6535 2.14216C51.8031 2.21837 50.0026 2.61381 48.3022 3.3175C48.2163 3.35308 48.1617 3.3722 48.072 3.38373C47.8595 3.43253 44.0058 4.42028 37.5085 12.5651C37.5062 12.568 37.5039 12.5708 37.5016 12.5737C37.4995 12.5762 37.4974 12.5788 37.4953 12.5813C37.4953 12.5813 30.1533 21.3264 27.1093 24.5205C25.0291 26.7034 22.0877 29.2091 17.7724 29.2091C11.514 29.209 6.42253 24.1173 6.42253 17.8591C6.42253 14.0551 8.3145 10.5224 11.4835 8.40897C11.9689 8.08553 12.6245 8.21659 12.948 8.70175C13.2715 9.18705 13.1405 9.84264 12.6552 10.1662C10.075 11.8866 8.53458 14.7623 8.53458 17.8587C8.53458 22.9524 12.6788 27.0966 17.7725 27.0966C20.514 27.0966 22.9221 25.8525 25.5806 23.0629C27.3793 21.1756 29.0353 19.3607 30.5821 17.5814C29.6036 16.5091 27.5409 14.3203 25.0791 12.1255C21.6162 9.03855 19.4424 8.62089 17.7729 8.62089H17.769C17.4615 8.62089 17.1514 8.63636 16.8469 8.66659C16.2677 8.72369 15.7493 8.30055 15.6917 7.72019C15.634 7.13983 16.0577 6.62275 16.6381 6.56495C17.0115 6.52783 17.3918 6.50898 17.7684 6.50898H17.7722C21.4559 6.50898 24.2432 8.55128 26.4845 10.5493C28.8998 12.7024 30.9031 14.8057 31.9664 15.964C32.5083 15.3205 34.8518 12.4584 34.8518 12.4584C29.3974 5.53459 24.5518 3.57737 24.0021 3.37178C23.8898 3.32973 23.7786 3.28614 23.6674 3.24184C21.865 2.52297 19.9594 2.14877 18.0027 2.12922C17.9498 2.1288 17.8964 2.12852 17.8435 2.12852C13.7089 2.12852 9.80302 3.73262 6.82852 6.65622C3.81802 9.61511 2.14318 13.5519 2.11266 17.7413C2.08172 21.9665 3.70341 25.9439 6.67875 28.9411C9.65185 31.936 13.6125 33.5865 17.8319 33.5893L18.5017 33.5758C20.352 33.4997 22.1526 33.1043 23.853 32.4006C23.9388 32.365 23.9935 32.346 24.0832 32.3343C24.2984 32.285 28.2293 31.2763 34.8478 22.8997C35.0986 22.5823 42.0019 14.3919 45.0459 11.1977C47.1262 9.01492 50.0678 6.50927 54.3827 6.50927H54.3828C60.6412 6.50927 65.7327 11.6007 65.7327 17.8591C65.7327 24.1152 60.6432 29.2067 54.3872 29.2091H54.3835ZM54.3828 8.62131C51.6413 8.62117 49.2333 9.86514 46.5748 12.6549C44.7763 14.5419 43.1198 16.357 41.5732 18.1359C42.5512 19.208 44.614 21.3972 47.0762 23.5924C50.5391 26.6795 52.7132 27.0972 54.3827 27.0972H54.3863C59.4782 27.0952 63.6208 22.9511 63.6208 17.8592C63.6208 12.7654 59.4765 8.62131 54.3828 8.62131Z" fill="black"/>
</g>
</svg>
