<svg width="71" height="72" viewBox="0 0 71 72" fill="none" xmlns="http://www.w3.org/2000/svg">
<path fill-rule="evenodd" clip-rule="evenodd" d="M38.9508 62.5571H41.3115C41.9634 62.5571 42.4918 63.0855 42.4918 63.7374V66.098C42.4918 69.3574 39.8495 71.9997 36.5902 71.9997H5.90164C2.64225 71.9997 0 69.3574 0 66.098V63.7374C0 63.0855 0.528451 62.5571 1.18033 62.5571H3.54098V37.7702C3.54098 37.1183 4.06943 36.5898 4.72131 36.5898H15.722C16.3738 36.5898 16.9023 37.1183 16.9023 37.7702C16.9023 38.422 16.3738 38.9505 15.722 38.9505H5.90164V62.5571H36.5902V50.9898C36.5902 50.338 37.1186 49.8095 37.7705 49.8095C38.4224 49.8095 38.9508 50.338 38.9508 50.9898V62.5571ZM36.5902 69.639C38.5458 69.639 40.1311 68.0537 40.1311 66.098V64.9177H2.36066V66.098C2.36066 68.0537 3.94601 69.639 5.90164 69.639H8.26229V68.4587C8.26229 67.8068 8.79075 67.2784 9.44262 67.2784C10.0945 67.2784 10.623 67.8068 10.623 68.4587V69.639H31.8689V68.4587C31.8689 67.8068 32.3973 67.2784 33.0492 67.2784C33.7011 67.2784 34.2295 67.8068 34.2295 68.4587V69.639H36.5902Z" fill="black"/>
<path d="M61.3772 8.26202H63.7379C64.3898 8.26202 64.9182 7.73357 64.9182 7.0817C64.9182 6.42982 64.3898 5.90137 63.7379 5.90137H61.3772C59.4216 5.90137 57.8362 7.48672 57.8362 9.44235V10.6227H56.6559C56.004 10.6227 55.4756 11.1511 55.4756 11.803C55.4756 12.4549 56.004 12.9833 56.6559 12.9833H57.8362V16.5243C57.8362 17.1762 58.3647 17.7046 59.0166 17.7046C59.6684 17.7046 60.1969 17.1762 60.1969 16.5243V12.9833H61.3772C62.0291 12.9833 62.5576 12.4549 62.5576 11.803C62.5576 11.1511 62.0291 10.6227 61.3772 10.6227H60.1969V9.44235C60.1969 8.79047 60.7253 8.26202 61.3772 8.26202Z" fill="black"/>
<path d="M67.2786 1.18066H53.1147C51.1591 1.18066 49.5737 2.76602 49.5737 4.72165V7.0823C49.5737 7.73418 50.1022 8.26263 50.7541 8.26263C51.4059 8.26263 51.9344 7.73418 51.9344 7.0823V4.72165C51.9344 4.06977 52.4628 3.54132 53.1147 3.54132H67.2786C67.9305 3.54132 68.459 4.06977 68.459 4.72165V18.8856C68.459 19.5375 67.9305 20.0659 67.2786 20.0659H53.1147C52.4628 20.0659 51.9344 19.5375 51.9344 18.8856V11.8036C51.9344 11.1517 51.4059 10.6233 50.7541 10.6233C50.1022 10.6233 49.5737 11.1517 49.5737 11.8036V18.8856C49.5737 20.8412 51.1591 22.4266 53.1147 22.4266H67.2786C69.2343 22.4266 70.8196 20.8412 70.8196 18.8856V4.72165C70.8196 2.76602 69.2343 1.18066 67.2786 1.18066V1.18066Z" fill="black"/>
<path fill-rule="evenodd" clip-rule="evenodd" d="M60.1969 53.1145C57.5894 53.1145 55.4756 51.0007 55.4756 48.3932C55.4756 45.7857 57.5894 43.6719 60.1969 43.6719C62.8044 43.6719 64.9182 45.7857 64.9182 48.3932C64.9182 51.0007 62.8044 53.1145 60.1969 53.1145ZM60.1969 50.7538C61.5007 50.7538 62.5576 49.6969 62.5576 48.3932C62.5576 47.0894 61.5007 46.0325 60.1969 46.0325C58.8931 46.0325 57.8362 47.0894 57.8362 48.3932C57.8362 49.6969 58.8931 50.7538 60.1969 50.7538Z" fill="black"/>
<path d="M67.2786 37.7705H53.1147C51.1591 37.7705 49.5737 39.3559 49.5737 41.3115V55.4754C49.5737 57.4311 51.1591 59.0164 53.1147 59.0164H67.2786C69.2343 59.0164 70.8196 57.4311 70.8196 55.4754V53.1148C70.8196 52.4629 70.2912 51.9344 69.6393 51.9344C68.9874 51.9344 68.459 52.4629 68.459 53.1148V55.4754C68.459 56.1273 67.9305 56.6558 67.2786 56.6558H53.1147C52.4628 56.6558 51.9344 56.1273 51.9344 55.4754V41.3115C51.9344 40.6596 52.4628 40.1312 53.1147 40.1312H67.2786C67.9305 40.1312 68.459 40.6596 68.459 41.3115V48.3935C68.459 49.0453 68.9874 49.5738 69.6393 49.5738C70.2912 49.5738 70.8196 49.0453 70.8196 48.3935V41.3115C70.8196 39.3559 69.2343 37.7705 67.2786 37.7705Z" fill="black"/>
<path fill-rule="evenodd" clip-rule="evenodd" d="M27.1476 15.3443C26.9266 15.345 26.7099 15.2837 26.522 15.1673C26.1762 14.9511 25.9665 14.5718 25.9673 14.164V7.08203C25.9685 6.67294 26.1815 6.29366 26.5302 6.07965C26.8788 5.86565 27.3134 5.84744 27.6788 6.03154L34.7607 9.57252C35.1549 9.77447 35.4029 10.1801 35.4029 10.623C35.4029 11.0659 35.1549 11.4716 34.7607 11.6735L27.6788 15.2145C27.5143 15.2987 27.3324 15.3432 27.1476 15.3443ZM31.5857 10.623L28.3279 8.99416V12.2519L31.5857 10.623Z" fill="black"/>
<path fill-rule="evenodd" clip-rule="evenodd" d="M40.1312 10.623C40.1312 16.4898 35.3751 21.2459 29.5082 21.2459C23.6413 21.2459 18.8853 16.4898 18.8853 10.623C18.8853 4.75606 23.6413 0 29.5082 0C35.3751 0 40.1312 4.75606 40.1312 10.623ZM37.7705 10.623C37.7705 6.05981 34.0713 2.36066 29.5082 2.36066C24.9451 2.36066 21.2459 6.05981 21.2459 10.623C21.2459 15.1861 24.9451 18.8852 29.5082 18.8852C34.0713 18.8852 37.7705 15.1861 37.7705 10.623Z" fill="black"/>
<path d="M41.3113 25.9668C41.6828 25.9668 42.0326 25.7919 42.2555 25.4947L45.7965 20.7734C46.1876 20.2519 46.0819 19.512 45.5604 19.1209C45.0389 18.7298 44.2991 18.8355 43.908 19.357L40.367 24.0783C39.9759 24.5998 40.0816 25.3396 40.6031 25.7307C40.8074 25.884 41.0559 25.9668 41.3113 25.9668Z" fill="black"/>
<path d="M43.908 30.2167C44.1309 30.5139 44.4808 30.6888 44.8523 30.6888C45.1077 30.6888 45.3562 30.606 45.5605 30.4528L50.2818 26.9118C50.8033 26.5206 50.909 25.7808 50.5178 25.2593C50.1267 24.7378 49.3869 24.6321 48.8654 25.0232L44.1441 28.5642C43.6226 28.9554 43.5169 29.6952 43.908 30.2167Z" fill="black"/>
<path d="M55.4752 32.8129C55.4185 32.4967 55.2354 32.2172 54.9681 32.0391C54.7008 31.8609 54.3724 31.7993 54.0588 31.8686L48.1571 33.0489C47.5053 33.1141 47.0297 33.6954 47.0948 34.3473C47.16 34.9992 47.7413 35.4748 48.3932 35.4096H48.6293L54.5309 34.2293C54.8471 34.1726 55.1265 33.9895 55.3047 33.7222C55.4829 33.4549 55.5445 33.1265 55.4752 32.8129Z" fill="black"/>
<path fill-rule="evenodd" clip-rule="evenodd" d="M15.3443 33.0496H1.18033C0.528451 33.0496 0 32.5212 0 31.8693V12.984C0 12.3322 0.528451 11.8037 1.18033 11.8037H15.3443C15.9961 11.8037 16.5246 12.3322 16.5246 12.984V31.8693C16.5246 32.5212 15.9961 33.0496 15.3443 33.0496ZM14.1639 14.1644H2.36066V30.689H14.1639V14.1644Z" fill="black"/>
<path d="M10.623 16.5244H8.26236C7.61048 16.5244 7.08203 17.0529 7.08203 17.7047C7.08203 18.3566 7.61048 18.8851 8.26236 18.8851H10.623C11.2749 18.8851 11.8033 18.3566 11.8033 17.7047C11.8033 17.0529 11.2749 16.5244 10.623 16.5244Z" fill="black"/>
<path d="M10.6228 21.2461H5.90152C5.24964 21.2461 4.72119 21.7745 4.72119 22.4264C4.72119 23.0783 5.24964 23.6067 5.90152 23.6067H10.6228C11.2747 23.6067 11.8032 23.0783 11.8032 22.4264C11.8032 21.7745 11.2747 21.2461 10.6228 21.2461Z" fill="black"/>
<path d="M10.6228 25.9668H5.90152C5.24964 25.9668 4.72119 26.4952 4.72119 27.1471C4.72119 27.799 5.24964 28.3275 5.90152 28.3275H10.6228C11.2747 28.3275 11.8032 27.799 11.8032 27.1471C11.8032 26.4952 11.2747 25.9668 10.6228 25.9668Z" fill="black"/>
<path fill-rule="evenodd" clip-rule="evenodd" d="M40.2728 32.6954C40.0619 32.3285 39.6714 32.102 39.2482 32.1012C38.8251 32.1003 38.4336 32.3253 38.2213 32.6913C38.009 33.0574 38.0081 33.5089 38.219 33.8757L43.4242 42.8816L24.539 49.9636H24.4564H24.3619L21.2931 51.7341L19.2511 52.9144C18.7082 53.2283 18.0627 53.3132 17.457 53.1505C16.8546 52.9877 16.3411 52.5931 16.0288 52.0528L13.6682 47.9688C13.0916 46.8596 13.4798 45.4932 14.5534 44.8528L18.6374 42.4921L21.5882 47.6029C21.7999 47.9696 22.1917 48.1948 22.6151 48.1931C23.0376 48.1948 23.4288 47.9705 23.6408 47.605C23.8528 47.2395 23.8532 46.7885 23.6419 46.4226L20.5967 41.1583L35.4098 28.942L35.8937 29.78C36.2197 30.3471 36.9437 30.5426 37.5108 30.2167C38.0779 29.8908 38.2735 29.1668 37.9475 28.5997L36.7672 26.5577C36.5921 26.2584 36.2943 26.0512 35.9528 25.9911C35.6094 25.9264 35.2549 26.0172 34.9849 26.239L18.4603 39.86L13.4321 42.7636C11.5763 43.8445 10.6839 46.0417 11.2603 48.1105L10.08 48.7833C8.83622 49.4975 8.14614 50.8915 8.33231 52.3136C8.51848 53.7357 9.54411 54.9051 10.9298 55.2751C11.2302 55.3546 11.5397 55.3943 11.8505 55.3931C12.4714 55.3905 13.0812 55.2279 13.621 54.921L14.8013 54.2482C15.3683 54.8339 16.0814 55.2577 16.8669 55.4757C17.2702 55.5886 17.6874 55.6442 18.1062 55.641C18.9359 55.6429 19.7509 55.4228 20.4669 55.0036L21.4937 54.4134L23.8544 58.5092C24.8312 60.1979 26.9899 60.7785 28.6819 59.8075C29.4963 59.3383 30.0906 58.5647 30.3342 57.657C30.5777 56.7493 30.4504 55.782 29.9803 54.9682L27.8321 51.2265L45.537 44.5813C45.862 44.4591 46.1167 44.2001 46.2334 43.8731C46.3497 43.5501 46.3195 43.1924 46.1508 42.8934L40.2728 32.6954ZM12.3934 52.8672C12.1219 53.0241 11.7992 53.0666 11.4964 52.9852C11.194 52.9067 10.935 52.7114 10.7764 52.4423C10.6194 52.1708 10.577 51.8481 10.6583 51.5452C10.7397 51.2408 10.9395 50.9816 11.2131 50.8252L12.24 50.2351L13.4203 52.277L12.3934 52.8672ZM28.0446 57.0692C28.1259 56.7663 28.0835 56.4436 27.9265 56.1721L25.5777 52.1354H25.4833L23.5239 53.2567L25.8846 57.3524C26.2127 57.9102 26.9287 58.0997 27.4898 57.7774C27.761 57.6238 27.9604 57.3692 28.0446 57.0692Z" fill="black"/>
</svg>
